<svg xmlns="http://www.w3.org/2000/svg" width="80" height="80" id="fingerprint"><path fill-rule="evenodd" d="M40.021-.078a40 40 0 0 0-40 40 40 40 0 0 0 40 40 40 40 0 0 0 40-40 40 40 0 0 0-40-40zm.325 20.066c1.423.025 2.85.202 4.26.535a.5.5 0 1 1-.231.973A18.998 18.998 0 0 0 28.91 24.56a.5.5 0 0 1-.584-.813 20.001 20.001 0 0 1 12.02-3.758zm6.996 1.432a.5.5 0 0 1 .193.04 20.003 20.003 0 0 1 12.348 20.685.5.5 0 1 1-.994-.108 18.997 18.997 0 0 0-11.73-19.65.5.5 0 0 1 .183-.967zm-7.531 1.455c2.693-.03 5.361.578 7.785 1.78a.5.5 0 1 1-.444.896 16.112 16.112 0 0 0-8.418-1.627.5.5 0 1 1-.078-.996c.385-.031.77-.053 1.155-.053zm-4.108.563h.002a.5.5 0 0 1 .123.984 16.108 16.108 0 0 0-11.941 15.562c0 2.06.179 3.066-.05 5.07a.5.5 0 0 1 0 .012 5.552 5.552 0 0 1-1.398 2.995.5.5 0 0 1-.74-.674 4.555 4.555 0 0 0 1.147-2.451c.215-1.905.043-2.839.043-4.952A17.112 17.112 0 0 1 35.57 23.46a.5.5 0 0 1 .133-.02v-.002zm-9.502 2.255a.5.5 0 0 1 .363.858 18.999 18.999 0 0 0-5.271 16.76.5.5 0 1 1-.984.175 20.003 20.003 0 0 1 5.548-17.642.5.5 0 0 1 .344-.15zm13.692.067c1.143-.01 2.3.118 3.449.396a14.227 14.227 0 0 1 10.863 13.125.5.5 0 1 1-1 .051 13.216 13.216 0 0 0-10.098-12.201 13.219 13.219 0 0 0-14.558 6.24.5.5 0 1 1-.865-.5 14.229 14.229 0 0 1 12.209-7.11v-.001zm10.037.426a.5.5 0 0 1 .326.103 17.112 17.112 0 0 1 6.037 8.473.5.5 0 1 1-.951.304 16.111 16.111 0 0 0-5.686-7.976.5.5 0 0 1 .274-.904zM40 28.652a.5.5 0 1 1 0 1A10.331 10.331 0 0 0 29.875 42.05a.5.5 0 1 1-.98.199A11.335 11.335 0 0 1 40 28.652zm3.283.502a.5.5 0 0 1 .147.028 11.337 11.337 0 0 1 7.9 10.798c.057 2.688.05 5.502-.226 7.99a.5.5 0 0 1-.995-.11c.27-2.41.279-5.194.223-7.868a.5.5 0 0 1 0-.01c0-4.503-2.911-8.483-7.203-9.847a.5.5 0 0 1 .105-.979.5.5 0 0 1 .05 0v-.002zm-3.767 2.399c.364-.021.73-.015 1.093.011a8.436 8.436 0 0 1 4.131 1.434.5.5 0 1 1-.56.828 7.444 7.444 0 0 0-7.43-.537.5.5 0 1 1-.436-.9 8.442 8.442 0 0 1 3.202-.834v-.002zm-5.143 2.31a.5.5 0 0 1 .363.86 7.444 7.444 0 0 0-2.181 5.263v3.315c0 4.51-1.87 8.687-4.975 11.732a.5.5 0 1 1-.7-.713c2.923-2.866 4.675-6.784 4.675-11.02v-3.314c0-2.24.89-4.387 2.474-5.97a.5.5 0 0 1 .344-.153zm5.627.573v.005a.5.5 0 0 1 .184.038c2.971.103 5.369 2.52 5.369 5.517v1.445c0 2.704-.28 5.401-.836 8.047a.5.5 0 1 1-.979-.207c.542-2.578.815-5.205.815-7.84v-1.445A4.546 4.546 0 0 0 40 35.441c-1.195.001-2.34.477-3.186 1.327a4.54 4.54 0 0 0-1.322 3.203l-.015 2.181a.5.5 0 1 1-1-.01l.015-2.18c0-1.465.58-2.87 1.613-3.907.987-.992 2.318-1.535 3.71-1.584a.5.5 0 0 1 .185-.035zm6.613.65a.5.5 0 0 1 .422.23 8.443 8.443 0 0 1 1.375 5.42.5.5 0 0 1-.996-.09 7.441 7.441 0 0 0-1.213-4.777.5.5 0 0 1 .412-.783zm-19.888.84a.5.5 0 0 1 .504.64 13.2 13.2 0 0 0-.434 4.096.5.5 0 0 1 0 .01c.053 1.629-.035 2.205-.018 4.377.057 2.253-1.15 4.357-3.132 5.48a.5.5 0 0 1-.493-.87c1.67-.946 2.672-2.703 2.625-4.585a.5.5 0 0 1 0-.01c-.018-2.205.07-2.772.02-4.351-.076-1.484.08-2.973.465-4.408a.5.5 0 0 1 .459-.377.5.5 0 0 1 .004-.002zM40 37.318v.002a2.675 2.675 0 0 1 2.664 2.668.5.5 0 1 1-1 0 1.66 1.66 0 0 0-1.666-1.668 1.66 1.66 0 0 0-1.666 1.668l-.03 2.76a.5.5 0 0 1 0 .02 30.105 30.105 0 0 1-1.52 8.2.5.5 0 1 1-.948-.316 29.107 29.107 0 0 0 1.47-7.93l.03-2.736c0-1.466 1.2-2.668 2.666-2.668zm16.447.018a.5.5 0 0 1 .52.441c.084.65.132 1.304.142 1.96a.5.5 0 0 1 0 .011v3.139c0 3.132-.426 6.25-1.27 9.267a.5.5 0 1 1-.962-.27 33.435 33.435 0 0 0 1.232-8.997v-3.131a16.085 16.085 0 0 0-.134-1.844.5.5 0 0 1 .472-.57v-.006zm-2.748 4.34a.5.5 0 0 1 .516.498c.081 4.64-.64 9.26-2.135 13.654a.5.5 0 1 1-.947-.322 39.23 39.23 0 0 0 2.082-13.315.5.5 0 0 1 .484-.515zm-11.701.687a.5.5 0 0 1 .516.545 36.646 36.646 0 0 1-5.455 16.553.5.5 0 1 1-.85-.527 35.657 35.657 0 0 0 5.309-16.104.5.5 0 0 1 .48-.467zm5.941.75a.5.5 0 0 1 .498.518 39.498 39.498 0 0 1-3.517 15.555.5.5 0 1 1-.91-.413 38.51 38.51 0 0 0 3.428-15.162.5.5 0 0 1 .501-.498zm-18.82 1.434a.5.5 0 0 1 .522.54 11.33 11.33 0 0 1-4.114 7.993.5.5 0 1 1-.634-.771 10.333 10.333 0 0 0 3.75-7.29.5.5 0 0 1 .476-.472zm5.488.008a.5.5 0 0 1 .522.586 26.137 26.137 0 0 1-4.992 11.724.5.5 0 1 1-.797-.603 25.142 25.142 0 0 0 4.8-11.278.5.5 0 0 1 .465-.427h.002v-.002zm15.54 5.77a.5.5 0 0 1 .498.603 35.535 35.535 0 0 1-2.196 7.058.5.5 0 1 1-.918-.394 34.54 34.54 0 0 0 2.133-6.86.5.5 0 0 1 .482-.408zm-6.653 1.435a.5.5 0 0 1 .492.646 39.13 39.13 0 0 1-2.968 7.324.5.5 0 1 1-.885-.468 38.136 38.136 0 0 0 2.894-7.137.5.5 0 0 1 .467-.365zm-8.371 1.459a.5.5 0 0 1 .05 0 .5.5 0 0 1 .446.713 30.122 30.122 0 0 1-2.494 4.433.5.5 0 1 1-.826-.562 29.11 29.11 0 0 0 2.41-4.285.5.5 0 0 1 .414-.3z"></path></svg>